<?xml version="1.0" encoding="iso-8859-1"?>
<!-- Uploaded to: SVG Repo, www.svgrepo.com, Generator: SVG Repo Mixer Tools -->
<svg fill="#000000" height="800px" width="800px" version="1.1" id="Capa_1" xmlns="http://www.w3.org/2000/svg" xmlns:xlink="http://www.w3.org/1999/xlink" 
	 viewBox="0 0 480.459 480.459" xml:space="preserve">
<g>
	<path d="M335.273,90.474c-29.861,0-54.069,24.207-54.069,54.068s24.207,54.069,54.069,54.069c29.861,0,54.069-24.208,54.069-54.069
		S365.134,90.474,335.273,90.474z M335.273,178.037c-18.498,0-33.494-14.996-33.494-33.494c0-18.498,14.996-33.494,33.494-33.494
		s33.494,14.996,33.494,33.494C368.767,163.041,353.771,178.037,335.273,178.037z"/>
	<path d="M474.116,13.359c-0.974-3.446-3.67-6.138-7.123-7.097C394.503-13.88,312.029,18.21,259.576,50.835
		c-52.914-13.458-101.398-3.062-133.421,28.744c-15.712,15.602-68.972,80.701-72.328,110.965c-0.346,3.12,0.749,6.224,2.974,8.435
		l31.294,31.083c3.953,3.929,10.303,3.988,14.336,0.156l32.167-30.581l143.796,142.822l-30.505,32.148
		c-3.847,4.06-3.752,10.444,0.216,14.382l32.153,31.932c3.718,3.723,7.991,2.969,8.369,2.928
		c30.425-3.33,95.941-56.213,111.648-71.81c32.12-31.899,42.565-80.137,28.929-132.8C473.301,148.885,491.036,72.959,474.116,13.359
		z M455.797,24.621c17.947,75.191-23.026,177.859-103.471,257.756c-17.831,17.706-37.029,33.74-57.167,47.733l-65.205-64.761
		l-81.838-81.284c14.07-19.957,30.179-38.99,47.975-56.666C263.482,60.471,367.359,5.609,455.797,24.621z M95.499,208.417
		l-20.263-20.122c7.102-24.096,48.026-76.844,65.416-94.118c22.978-22.822,56.739-32.273,94.773-27.127
		c-18.682,13.487-36.759,28.797-53.83,45.752c-20.521,20.381-38.906,42.499-54.675,65.749L95.499,208.417z M385.78,337.44
		c-17.42,17.3-70.665,58.028-94.912,65.019l-21.127-20.981l26.701-28.138c6.017-2.523,48.662-33.248,70.381-56.367
		c16.571-17.639,32.626-35.146,46.214-53.831C418.306,280.983,408.813,314.563,385.78,337.44z"/>
	<path d="M258.373,423.873l14.497,14.597l-42.274,41.989L216.1,465.861L258.373,423.873z M213.03,378.84l-42.274,41.983
		l14.496,14.597l42.275-41.982L213.03,378.84z M43.48,294.412l14.497,14.598l42.274-41.983L85.755,252.43L43.48,294.412z
		 M42.295,209.266L0.02,251.254l14.497,14.598l42.274-41.989L42.295,209.266z"/>
</g>
</svg>